<svg width="18" height="18" viewBox="0 0 18 18" fill="none" xmlns="http://www.w3.org/2000/svg">
<g id="Layer 1">
<path id="Vector" d="M8.98019 16.4261C13.0728 16.4261 16.3904 13.1085 16.3904 9.0159C16.3904 4.92333 13.0728 1.60565 8.98019 1.60565C4.88763 1.60565 1.56995 4.92333 1.56995 9.0159C1.56995 13.1085 4.88763 16.4261 8.98019 16.4261Z" fill="#5E60CE"/>
<path id="Vector_2" d="M8.96428 1.85955C10.3765 1.85955 11.7571 2.27834 12.9313 3.06294C14.1056 3.84755 15.0208 4.96275 15.5612 6.2675C16.1017 7.57225 16.2431 9.00797 15.9676 10.3931C15.6921 11.7782 15.012 13.0505 14.0134 14.0491C13.0148 15.0478 11.7424 15.7278 10.3573 16.0033C8.9722 16.2789 7.53648 16.1375 6.23173 15.597C4.92697 15.0566 3.81178 14.1413 3.02717 12.9671C2.24257 11.7928 1.82378 10.4123 1.82378 9.00005C1.8311 7.10852 2.58574 5.29656 3.92326 3.95904C5.26079 2.62152 7.07275 1.86687 8.96428 1.85955ZM8.96428 0.272778C7.23972 0.279833 5.55592 0.797669 4.12543 1.76091C2.69494 2.72416 1.58191 4.08962 0.926831 5.68493C0.271755 7.28024 0.104012 9.03387 0.444777 10.7244C0.785541 12.415 1.61954 13.9667 2.84148 15.1837C4.06342 16.4006 5.61852 17.2283 7.31046 17.5621C9.00241 17.896 10.7553 17.7211 12.348 17.0595C13.9406 16.3979 15.3015 15.2793 16.2589 13.8449C17.2163 12.4105 17.7272 10.7246 17.7273 9.00005C17.7273 7.85096 17.5003 6.71318 17.0595 5.652C16.6187 4.59083 15.9727 3.62715 15.1585 2.81628C14.3443 2.00541 13.378 1.36331 12.315 0.926827C11.2521 0.490346 10.1134 0.268077 8.96428 0.272778Z" fill="#5E60CE"/>
<path id="Vector_3" d="M12.4307 6.34209L8.09877 10.674L5.6163 8.19156L4.7804 9.02747L8.09877 12.3458L13.2666 7.178L12.4307 6.34209Z" fill="#F2F2F2"/>
</g>
</svg>
